<?xml version="1.0" encoding="UTF-8"?>
<svg id="Layer_2" data-name="Layer 2" xmlns="http://www.w3.org/2000/svg" viewBox="0 0 360.48 179.68">
  <defs>
    <style>
      .cls-1 {
        fill: #ffc2b1;
      }

      .cls-2 {
        fill: #fd8b7d;
      }

      .cls-3 {
        fill: #c1564b;
      }

      .cls-4 {
        fill: #121212;
      }

      .cls-5 {
        fill: #c7675d;
      }

      .cls-6 {
        fill: #ffc82d;
      }
    </style>
  </defs>
  <g id="Layer_1-2" data-name="Layer 1">
    <g>
      <path class="cls-3" d="M86.25.07c.24.19.55.41.85.46,3.34.56,6.22,2.71,8.76,5.26l17.52,17.62c10.34,10.4,22.17,18.8,35.78,24.22l22.38,8.92,16.85,6.91c3.79-2.3,7.23-4.35,11.25-5.16,5.67-1.13,10.35,2.08,12.38,6.94-.21.98-.05,1.75.22,3.11l-6.16-.94c-4.43-.67-8.73-.45-12.91-2.31.14,1.23.79,1.52,2.13,2.07-.72.38-1.39.6-1.59,1.71,6.29,1.05,12.05,1.22,18.69,1.26-.63.66-1.36.79-1.38,1.95l12.42-.39c.89-.03,1.11-1.6.86-2.15h1.45c.69,1.9,2.84.92,4.44.79,1.96-.16,3.25,0,4.22-1.36.94-.33,3.05.29,3.94-.67.34-.09,1.16-.07,1.51.04,1.17.73,2.88-.13,4.62-.47.76-.15,2.48.89,2.78-.51l2.07-.37c.07.86.85.49.62-.14,12.35-2.16,24.33-5.17,36.78-8.45,12.66-3.34,40.42-10.9,49.33-10.12,1.11.1,2.55.6,3.33-.69l10.22-.28-.23,2.23c-3.92-.29-7.76.12-11.99.87-36.38,6.45-69.7,22.1-108.9,28.81l-20.87,3.57-6.76.58c3.07,1.88,6.08.92,8.79,1.4-4.47,6.97-13.29,14.4-21.23,17.81l-14.79,6.34c-6.79,2.91-12.01,8.09-17.12,13.47-12.31,12.94-16.79,27.23-25.18,36.75-9.68,10.99-23.56,9.76-36.34,3.28-17.09-8.67-29.57-22.16-49.18-32.03-6.09-3.06-12.48-5.57-18.97-7.84l4.26-3,15-.7c2.32-.11,3.69-.47,5.89-.77,10.08-1.36,19.95-1.92,29.72-4.77l27.6-8.05c14.64-4.27,29.59-5.27,44.63-7.73l20.59-3.37-.66-5.57c3.64.08,7.89,1.42,11.06-.68,2.01-1.33,2.35-6.18,1.15-8.52,3.56-4.42,5.66-1.58,9.16-1.79-3.25-2.7-6.41-3.96-8.06-1.27-.64,1.04-1.67,1.47-2.6,1.38-.82-.07-2.53-1.08-2.03-2.15.54-1.15,1.13-1.8.86-2.99s-.58-2.14-1.89-2.4l-6.91-1.37c-.66-.13-1.15-.77-1.21-1.16,3.49-2.69,6.02.52,7.04-.32.35-.29.76-.95.64-1.3-.25-.75-1.18-.92-1.95-1.15l-15.7-4.61c-.7,1.01-.29,4.11,1.09,4.74.87.4,3.74.91,2.63,2.56-.91,1.36-5.33.99-6.26-.26l-2.59-3.49c-4.55.87-4.73,3.33-7.37,4.79,2.51,1.26,3.81.12,5.72-.41.68,2.41,1.49,4.14,3.29,5.52-2.16,1.38-4.22,2-6.42,1.62l-.17-3.68-3.74-2.37c1.29-2.19.86-4.56.15-6.67l1.78-3.95c.56-1.24,4.28-2.03-5.69-3.55-1.15.15-1.42,3.25-.32,4.18-.85,1.31-1.65,2.57-2.8,3.35-1.4.52-3.3-.22-5.04-.54-.12-.87.17-2.97-.67-3.58-1.5-1.09-3.72-.57-5.25-.39.03-1.13-.76-1.75-1.57-1.74-1.08.01-2.09.04-2.95.35.08-.57-.14-.89-.37-1.17-.29-.35-1.55-.85-1.87-.49-1.1,1.27-2.92.31-3.79.63-2.96,1.07-5.39,2.28-8.33.75l-.72-2.57c-2.12-.37-4.87-.59-6.9-.04-.87,5.65-7.64-1.14-10.68.96-1.12.77-1.25,1.85-2.8,1.9-1.66.06-2.69-.43-3.61-1.88l-9.05,1.66c.92.7,1.87,1.9,1.26,2.51-1.2,1.19-3.18,1.54-4.66.93.68-.74.51-2.5-.24-2.7-3.09,2.14-7.26,1.71-10.44,3.11l-14.17,6.26-10.5,5.62c-.61-1.02-1.77-1.02-3.23-1.04,2-1.43,3.58-2.96,5.08-5.05,9.94-13.78,12.91-31.52,21.97-46.9C69.41,10.38,75.41.98,85.12.16l1.13-.09Z"/>
      <path class="cls-5" d="M127.24,56.75l-1.44,2.04c2.02,2.01,4.28,1.1,5.97-.65,1.53-.18,3.75-.7,5.25.39.84.61.55,2.71.67,3.58,1.74.32,3.64,1.06,5.04.54,1.15-.77,1.95-2.04,2.8-3.35-1.1-.93-.83-4.03.32-4.18,9.97,1.52,6.24,2.3,5.69,3.55l-1.78,3.95c.72,2.11,1.14,4.47-.15,6.67l3.74,2.37.17,3.68c2.2.38,4.26-.24,6.42-1.62-1.81-1.38-2.62-3.1-3.29-5.52-1.91.53-3.22,1.67-5.72.41,2.64-1.46,2.82-3.91,7.37-4.79l2.59,3.49c.93,1.26,5.35,1.62,6.26.26,1.11-1.65-1.76-2.16-2.63-2.56-1.38-.64-1.79-3.73-1.09-4.74l15.7,4.61c.77.23,1.7.4,1.95,1.15.12.35-.28,1.01-.64,1.3-1.02.84-3.55-2.36-7.04.32-.39.08-.85.21-1.26.15-.92-.13-2.56.38-2.62,1.76-.03.67,1.37,1.02,1.89,1.01,4.2-.12,6.36,4.26,9.77,2.3,1-.57.8-2.02.35-2.69,1.31.26,1.62,1.24,1.89,2.4s-.32,1.83-.86,2.99c-.5,1.07,1.21,2.08,2.03,2.15.93.08,1.96-.35,2.6-1.38,1.65-2.69,4.81-1.43,8.06,1.27-3.51.21-5.6-2.63-9.16,1.79,1.2,2.34.86,7.19-1.15,8.52-3.17,2.09-7.42.75-11.06.68l.66,5.57-20.59,3.37c-15.04,2.46-29.99,3.46-44.63,7.73l-27.6,8.05c-9.77,2.85-19.64,3.4-29.72,4.77-2.2.3-3.57.66-5.89.77l-15,.7-4.26,3-1.22-.43c-.09-1.02-1.5-1.03-2.36-1.48l-1.16-.61c-.5-.26-1.11.29-.96.9l-1.11-.19v-5.28c-.75-2.08-8.13-1.77-8.8-1.31-.75.53-.37,2.4-.88,2.96-.74.83-2.58-.37-2.57-1.61l-4.5.5-1.71-1.13c-.55-.36-.34-1.55-.16-2.09l5.23-4.98c5.07-4.82,8.59-10.64,12.72-15.88.82-1.05,2.3-2.32,2.34-3.99,1.62,0,2.41-1.34,3.57-2.33l11.06-9.39c.81-.69,1.23-1.22.68-2.1,1.36-.06,2.4-1.41,3.37-1.93l10.5-5.62,14.17-6.26c3.17-1.4,7.35-.97,10.44-3.11.75.2.92,1.97.24,2.7,1.48.61,3.46.27,4.66-.93.61-.61-.34-1.82-1.26-2.51l9.05-1.66c.92,1.45,1.96,1.94,3.61,1.88,1.55-.06,1.68-1.13,2.8-1.9,3.04-2.09,9.81,4.7,10.68-.96,2.03-.55,4.78-.33,6.9.04l.72,2.57c2.94,1.53,5.37.32,8.33-.75.88-.32,2.7.64,3.79-.63.32-.37,1.58.14,1.87.49.23.28.45.6.37,1.17ZM70.68,62.79c-.31-2.06-1.8-1.91-2.81-1.8-1.17.12-2.5,1.69-1.78,2.34,1.25.58,3.03,0,4.59-.54ZM108.68,61.47c-.82.74-2.92.89-3.19,2.5-.21,1.27,1.74,1.38,2.87,1.26s1.79-.45,2.6-1.9c1-.24,4.53.27,4.22-2.18-1.21-1.25-5-1.03-6.5.32ZM98.51,65.93c1.33-.4,1.77-2.97,1.01-3.84-.89-1.02-3.35-1.27-4.46-.52-3.2,2.18-5.68,2.1-5.53,3.82.16,1.82,5.22,1.66,8.98.54ZM125.07,65.19c-.77-2.27-3.49-3.91-5.49-2.68-.8.52-.12,3.39.81,3.56,1.44.27,3.27-.32,4.68-.88ZM84.78,64.68c-3.11-2.14-7.35-.88-9.72,1.72,2.76,2.93,7.52,1.84,9.72-1.72ZM59.28,65.94c-1.56-.96-6.91,0-6.48,2.99,1.18,1.88,5.72-.56,6.48-2.99ZM144.95,67.54c-3.59-1.17-6.75-2.13-10.45-1.32,3.35,1.92,6.71,2.73,10.45,1.32ZM68.06,70.89c.64-.47-.01-1.75-.49-2.11-1.68-1.23-3.74-.28-5.43,1.78,1.86,1.23,4.18,1.62,5.92.33ZM140.86,72.78c.96-1.88-1.38-3.23-2.48-3.22-1.28.01-3.87.77-3.5,2.51.45,2.13,5.04,2.53,5.98.7ZM105.21,73.24c-1.17-1.3-5.94-.32-6.41,1.21-.3,2.46,2.52,3.16,4.34,2.82,1.38-.26,3.9-2.02,2.08-4.03ZM127.43,76.87c1.19-.19,1.97.3,2.29-.82.21-.75-.06-1.85-1.03-2.21-7.05-2.64-11.59,0-10.3,1.7,2.38,3.13,5.8,1.87,9.04,1.34ZM62.57,73.57c-1.81-.29-3.4.28-4.37,1.04-.25.2,0,1.65.27,1.84.93.66,2.56.08,3.33-.47.54-.39,1.33-1.83.78-2.4ZM95.6,75.08c-2.14-.82-4.55-1.85-6.82-1.31-1.18.28-2.31,1.56-2.41,2.49-.08.81,1.2,2.31,2.32,2.42,2.63.25,5.25-.97,6.91-3.6ZM172.25,79.08c.77.24,2.34-.03,3.38-.22.24-.17.25-1.1.13-1.35-1.01-1.99-4.19-3.38-6.37-2.82l-1.82.47c-1.11-.91-2.09,0-3.43.59l-1.15.51c-.21.09.13.92.52.99,2.37.43,4.7,6.03,2.17,7.76-3.06,2.09-5.65-.08-6.64.08-.74.12-2.27.27-2.1,1.76s3.69,3.71,5.1,2.62c5.84-4.51,8.18.21,10.57-2.32.93-.98-.26-1.94-.3-3.3l-.06-4.77ZM78.99,75.96c-1.93-2.17-5.54-.35-6.48,1.71,1.46,1.55,3.09,2.03,4.83,1.78.93-.13,2.5-2.52,1.65-3.49ZM153.03,81.3c-1.01-1.58-2.45-3.75-4.15-3.9-1.35-.12-3.39,2.15-3.8,3.62,1.97,2.21,5.55,2.59,7.95.28ZM138.94,79.99c-1.28-1.77-2.26-1.84-3.82-1.02-1.19.63-1.79,1.83-1.05,3.26.48.92,1.35,1.88,2.81,1.93,1.23.04,2.32-.34,2.86-1.2.62-.96-.02-1.88-.81-2.98ZM124.43,83.84c-.91-2.17-5.7-2.45-6.44-.03-.48,1.58,2.14,2.47,3.24,2.49s3.82-.97,3.19-2.47ZM109.25,84.88c-.8-2.33-4.81-2.31-6.61-1.17-1.53.96-2.4,2.75-1.22,4.11.97,1.12,8.87.14,7.82-2.94ZM182.62,83.79c-.86-1.27-2.29-1.05-3.06-.81-.61.19-1.66.79-1.51,1.95.14,1.04,2.1,1.89,2.88,1.51s2.23-1.85,1.69-2.64ZM89.31,87.01c.02-.69-.15-1.65-.9-2.32-1.41-1.27-3.7-1.48-5.55-.83l-4.47,1.57c.58,1.51,2.64,3.27,3.95,2.99,4.07-.87,6.9,1.29,6.97-1.41ZM65.89,87.23c4.49,8.68,5.68,11.2.04,20.12,5.39-2.05,9.01-4.9,10.46-10.16.66-2.4.5-4.88-1.15-6.61s-3.95-2.39-6.52-2.55l-1.92-.78c-.16-.23-.27-.41-.52-.48-.18-.05-.55-.1-.9.22-.13.11.11.69.51.24ZM139.8,93.53c1.94-.96,1.71-3.73.76-5.08-1.13-1.6-3.4-2.12-5.22-1.32l1.42,3.68c.49,1.27,1.5,3.48,3.05,2.72ZM154.42,89.41c-1.71-1.45-4.65-2.33-6.27-1.75-.84.31-.61,2.27.07,2.7l2.2,1.38c1.12.71,2.17,1.14,3.23.72.86-.34,2.01-2,.77-3.05ZM40.17,104.53c.37.13.36.56.25.81-.76.39-2.08.09-2.89,1.35l9.13,1.41c4.07,1.52,8.66,2.9,12.28.41.31-.21.99-.38,1.33-.46,1.14-.14,1.95-.52,2.61-1.46l1.32-1.88c.52-.74,1.41-1.55,1.7-2.46,2.35-1.29,2.56-4,2.22-6.49-.26-1.93-.28-2.61-2.16-3.93-5.2-3.66-11.81-3.84-16.99.44-2.82,2.33-4.58,5.65-6.25,9.41-1.19-3-.21-5.91.08-9.27-2.52,3.46-2.94,8.29-2.62,12.14ZM132.49,92.56c-.77-2.07-5.01-2.02-6.09-.21-.78,1.31,1.53,3.48,3.04,3.3,1.15-.14,3.76-1.21,3.06-3.09ZM119.17,96.55c.58-.65.59-1.65.14-2.14-1.32-1.43-4.94.73-8.87.35-.41,1.32.05,2.37.59,2.89,1.53,1.45,6.08,1.22,8.14-1.11ZM98.32,99.95c.75.13,1.44-.41,2.02-1.16.7-.91.94-2.18.28-2.9-1.23-1.33-4.15-.42-4.57.29-.66,1.13.89,3.53,2.27,3.77ZM88.69,104.39c1.78-.05,2.84-1.64,3.03-2.66.43-2.39-2.18-5.45-3.72-5.68-.94-.14-2.23.07-2.58,1.02-.5,1.36.61,2.62.77,3.67.14.93-.42,2.06-.07,2.53.45.6,1.41,1.15,2.57,1.12ZM30.61,110.13c-1.09-2.61-7.49-.33-7.04,1.41.32,1.23,2.48,1.56,3.69,1.35.97-.17,2.63-.94,3.35-2.76Z"/>
      <path class="cls-6" d="M202.62,98.29c-.12.16-.38.52-.73.44-4.42,3.6-9,7.12-14.35,10.03-15.3,8.32-26.94,20.39-35.06,35.82l-8.59,16.3c-7.6,14.43-20.84,20.44-36.53,15.53-4.84-1.51-9.04-3.34-13.33-5.89l-3.76-2.22c-13.14-7.77-27.6-23.09-46.12-33.45.28.07.92-.39.78-.48l-1.05-.72c-.73-1.37.79-2.33,1.92-3.24,19.61,9.87,32.09,23.36,49.18,32.03,12.78,6.48,26.66,7.71,36.34-3.28,8.38-9.52,12.87-23.81,25.18-36.75,5.11-5.37,10.33-10.56,17.12-13.47l14.79-6.34c7.94-3.41,16.76-10.84,21.23-17.81.58.05.86.57.36,1.06-1.23,5.03-4.6,8.59-7.37,12.45Z"/>
      <path d="M357.72,48.08c.64,1.16,2.58.64,2.75,1.89.04.28-.03.64-.1.85l-10.17.17-.67.04-10.16,1.15c-.22-.23-.66-.52-.92-.41-.43.18-.57.6-.59.94-.72-.05-1.68-.09-2.36.17-.02-.53-.5-.8-.95-.59-.31.14-.44.4-.32.72l-4.35.62c-.55.08-1.27-.08-1.43.63-.53.14-1.47.22-1.88.54-1.29-.65-3.38-.17-4,1.12-.31,0-.86.19-1.17.03-1.15-.62-2.83.02-3.32,1.24l-1.18.06c-1.06-.64-2.89-.02-3.28,1.22l-12.92,3.71c-25.36,8.38-51.64,16.91-78.09,20.87,1.85,2.06,4.32,1.88,5.02,3.73-2.27,1.46-4.77.67-6.9-.76-3.37,2.65-6.69.41-9.4,1.71-.86,2.91-.89,5.8-2.54,8.4-.71,1.13-1.12,2.3-1.07,3.47-1.62-.39-3.56-.19-5.09-1.32,2.77-3.87,6.14-7.42,7.37-12.45.5-.49.22-1.01-.36-1.06-2.71-.48-5.72.48-8.79-1.4l6.76-.58,20.87-3.57c39.2-6.71,72.51-22.36,108.9-28.81,4.23-.75,8.07-1.15,11.99-.87,1.71.12,3.34-.37,5.26-.84l1.6.32c.29.06.42-.92.24-1.22l1.27.27Z"/>
      <path class="cls-6" d="M85.12.16c-9.72.82-15.72,10.21-20.94,19.08-9.05,15.38-12.03,33.12-21.97,46.9-1.51,2.09-3.09,3.61-5.08,5.05,1.46.02,2.61.02,3.23,1.04-.97.52-2.02,1.87-3.37,1.93-5.95.28-10.87,4.24-14.67,8.75.48-1.21.33-3.05.26-4.39.92-4.76,6.9-7.07,12.66-7.8,2.17-.27,2.79-3.05,3.73-4.58C51.49,45.75,57.42,14.87,76.14,2.53c2.83-1.87,5.99-2.96,8.98-2.36Z"/>
      <path class="cls-3" d="M201.89,98.73c-.37,1.67-1.83,2.65-3.2,3.91l-4.34,3.96c-9.38,5.14-18.13,10.78-25.33,18.77l-5.09,5.65c-5.44,6.04-9.21,13-13.25,20.02l-9.57,16.63c-3.39,4.64-7.74,8.29-13.29,10.3-13.15,4.76-26.15-1.25-37.17-7.9l-.38-1.78,3.76,2.22c4.3,2.54,8.49,4.37,13.33,5.89,15.69,4.91,28.93-1.1,36.53-15.53l8.59-16.3c8.12-15.42,19.76-27.5,35.06-35.82,5.35-2.91,9.93-6.42,14.35-10.03Z"/>
      <path class="cls-3" d="M227.62,86.78c1.92,5.07-1.23,10.84-6.41,12.74-4.65,1.7-9.02,1.16-13.5.09-.05-1.17.36-2.35,1.07-3.47,1.65-2.6,1.68-5.49,2.54-8.4,2.71-1.3,6.03.94,9.4-1.71,2.14,1.43,4.63,2.22,6.9.76Z"/>
      <path class="cls-4" d="M44.15,134.85c18.53,10.36,32.99,25.67,46.12,33.45l.38,1.78-4.43-2.68-11.1-8.01-9.1-6.97c-10.14-7.76-20.41-14.93-32-20.31-4.96-2.3-9.49-4.3-14.6-5.87l-14.17-4.37c-2.24-.69-4.43-2.32-5.01-4.27,2.1,1.89,4.59,2.94,7.69,3.69,12.73,3.11,25.02,7.29,36.23,13.56Z"/>
      <path class="cls-2" d="M3.25,116.05c1.08.71,2.13,1.37,3.69,1.73l13.06,2.99,1.11.19,4.49,1.18,1.22.43c6.49,2.27,12.89,4.78,18.97,7.84-1.13.91-2.65,1.87-1.92,3.24l1.05.72c.14.09-.5.55-.78.48-11.21-6.27-23.5-10.46-36.23-13.56-3.1-.76-5.59-1.8-7.69-3.69-.56-1.9-.07-3.6,1.15-4.76-.18.54-.39,1.73.16,2.09l1.71,1.13Z"/>
      <path class="cls-4" d="M212.03,65.23l.83,3.58c.41,1.79,3.91.4,4.5-1.1.46-1.16,1.48-1.35,2.22-1.38,2.1-.08,2.87,3.21,4.72,3.23.25.55.04,2.12-.86,2.15l-12.42.39c.02-1.16.76-1.29,1.38-1.95-6.63-.04-12.4-.21-18.69-1.26.2-1.11.87-1.34,1.59-1.71-1.34-.56-1.99-.84-2.13-2.07,4.19,1.86,8.49,1.64,12.91,2.31l6.16.94c-.27-1.36-.43-2.13-.22-3.11Z"/>
      <path d="M22.58,78.53c.07,1.34.22,3.18-.26,4.39-.67,1.69-.59,3.3-.64,5.06-.04,1.67-1.52,2.95-2.34,3.99,1.1-1.63.87-3.4.48-5.4-.36-1.81.96-7.75,2.77-8.04Z"/>
      <path class="cls-4" d="M230.74,66.31c.43,1.09,1.7,1.29,2.56,1.94l1.1.74c-.97,1.36-2.26,1.2-4.22,1.36-1.6.13-3.75,1.11-4.44-.78l4.99-3.26Z"/>
      <path class="cls-3" d="M247.25,67.38c-.3,1.4-2.02.35-2.78.51-1.74.35-3.45,1.2-4.62.47.05-1.78,2.77-4.17,4.64-2.9.74.5,1.12,2.76,2.77,1.92Z"/>
      <path class="cls-3" d="M356.46,47.81c.18.3.05,1.28-.24,1.22l-1.6-.32c-1.92.46-3.54.96-5.26.84l.23-2.23,6.86.49Z"/>
      <path class="cls-3" d="M238.33,68.32c-.89.96-3,.34-3.94.67l-1.1-.74c.06-.61-.19-1.3-.6-1.63-.56-.45-1.33-.35-1.96-.31,2.42-1.82,3.88,2.31,7.6,2.01Z"/>
      <path class="cls-3" d="M326.56,54.8c-1.13.88-2.63,1.15-4,1.12.62-1.29,2.71-1.77,4-1.12Z"/>
      <path class="cls-3" d="M316.9,57.25c-.51,1.46-2.25.93-3.28,1.22.39-1.24,2.22-1.87,3.28-1.22Z"/>
      <path class="cls-3" d="M321.39,55.95c-.62,1.2-2.14,1.18-3.32,1.24.48-1.22,2.17-1.86,3.32-1.24Z"/>
      <path class="cls-3" d="M339.36,52.17c.17.51-.2.63-.46.61l-1.05-.08c.02-.35.16-.76.59-.94.25-.11.7.18.92.41Z"/>
      <path class="cls-3" d="M335.49,52.87c-.22.08-.27.58-.74.49-.18-.04-.41-.24-.52-.36-.11-.32.02-.58.32-.72.45-.21.92.06.95.59Z"/>
      <path class="cls-3" d="M329.88,53.62c-.4.41-.91.49-1.43.63.16-.71.88-.56,1.43-.63Z"/>
      <path class="cls-3" d="M249.31,67.01l.62-.14c.24.63-.55,1-.62.14Z"/>
      <path class="cls-4" d="M173.38,67.67c.07.39.55,1.02,1.21,1.16l6.91,1.37c.45.67.65,2.11-.35,2.69-3.41,1.96-5.56-2.42-9.77-2.3-.13-.99.25-1.92.73-2.76.41.06.88-.07,1.26-.15Z"/>
      <path class="cls-4" d="M131.76,58.14c-1.68,1.74-3.95,2.65-5.97.65l1.44-2.04c.86-.31,1.87-.34,2.95-.35.81-.01,1.6.61,1.57,1.74Z"/>
      <path class="cls-4" d="M68.11,95.74l-3.34-.89c1.4,3.87-1.15,6.12,1.12,7.38-.29.92-1.18,1.72-1.7,2.46l-1.32-.23c.88-1.24.98-2.47,1.09-3.91.2-2.74.51-6.32-2.48-7.98-1.94-1.08-4.4-.07-6.27-.03l-2.98,1.41c-2.38,1.13-4.07,1.58-4.93,3.99-2.01.12-2.08,2.48-2.4,4.12-1.27.55-2.42,1.44-3.15,2.58l-1.57-.13c-.32-3.85.1-8.67,2.62-12.14-.29,3.36-1.27,6.27-.08,9.27,1.67-3.77,3.43-7.09,6.25-9.41,5.18-4.28,11.78-4.1,16.99-.44,1.88,1.32,1.9,2,2.16,3.93Z"/>
      <path class="cls-4" d="M58.93,108.5c-3.62,2.49-8.21,1.11-12.28-.41l-9.13-1.41c.81-1.26,2.13-.96,2.89-1.35l1.32-.68c.63-.05,2.02.21,2.65-.21.52-.35.42-1.73.51-2.37,2.42,3.35,6.14,6.3,10.89,6.42.88.02,2.49-1.37,3.16,0Z"/>
      <path class="cls-3" d="M167.57,75.17c-.14.37-.17,1.14.04,1.52.18.33.82.65,1.38.9l3.26,1.5.06,4.77c.03,1.36,1.23,2.32.3,3.3-2.4,2.54-4.74-2.19-10.57,2.32-1.41,1.09-4.92-1.11-5.1-2.62s1.36-1.64,2.1-1.76c.99-.16,3.58,2.01,6.64-.08,2.53-1.73.2-7.33-2.17-7.76-.39-.07-.73-.9-.52-.99l1.15-.51c1.34-.6,2.32-1.5,3.43-.59Z"/>
      <path class="cls-3" d="M36.99,74.17c.55.88.13,1.41-.68,2.1l-11.06,9.39c-1.17.99-1.96,2.33-3.57,2.33.05-1.77-.03-3.37.64-5.06,3.8-4.51,8.73-8.48,14.67-8.75Z"/>
      <path class="cls-4" d="M68.73,88.02c-.63,1.68.68,2.63,1.46,4.12l2.84,5.46,3.37-.42c-1.45,5.26-5.07,8.11-10.46,10.16,5.65-8.92,4.45-11.44-.04-20.12.29-.14.59-.11.91.02l1.92.78Z"/>
      <path class="cls-3" d="M20,120.77l-13.06-2.99c-1.56-.36-2.61-1.02-3.69-1.73l4.5-.5c-.01,1.23,1.83,2.44,2.57,1.61.51-.57.13-2.44.88-2.96.67-.47,8.05-.77,8.79,1.31v5.28Z"/>
      <path class="cls-3" d="M76.39,97.18l-3.37.42-2.84-5.46c-.78-1.49-2.08-2.44-1.46-4.12,2.57.16,4.93.88,6.52,2.55s1.81,4.21,1.15,6.61ZM75.87,95.07l-.32.32.32.32.37-.32-.37-.32Z"/>
      <path class="cls-3" d="M127.43,76.87c-3.24.53-6.66,1.79-9.04-1.34-1.29-1.69,3.24-4.33,10.3-1.7.97.36,1.24,1.46,1.03,2.21-.32,1.13-1.09.63-2.29.82Z"/>
      <path class="cls-3" d="M89.31,87.01c-.07,2.7-2.91.55-6.97,1.41-1.31.28-3.37-1.48-3.95-2.99l4.47-1.57c1.84-.65,4.14-.44,5.55.83.75.68.92,1.63.9,2.32Z"/>
      <path class="cls-3" d="M98.51,65.93c-3.76,1.12-8.82,1.29-8.98-.54-.15-1.72,2.33-1.64,5.53-3.82,1.11-.75,3.56-.5,4.46.52.76.87.32,3.44-1.01,3.84Z"/>
      <path class="cls-3" d="M88.69,104.39c-1.17.03-2.12-.52-2.57-1.12-.35-.47.21-1.6.07-2.53-.16-1.05-1.28-2.31-.77-3.67.35-.95,1.64-1.16,2.58-1.02,1.54.23,4.15,3.29,3.72,5.68-.18,1.02-1.25,2.61-3.03,2.66Z"/>
      <path class="cls-3" d="M109.25,84.88c1.05,3.08-6.85,4.06-7.82,2.94-1.19-1.37-.31-3.15,1.22-4.11,1.79-1.13,5.81-1.16,6.61,1.17Z"/>
      <path class="cls-4" d="M95.6,75.08c-1.66,2.63-4.28,3.84-6.91,3.6-1.12-.1-2.4-1.6-2.32-2.42.09-.93,1.23-2.22,2.41-2.49,2.27-.53,4.69.49,6.82,1.31Z"/>
      <path class="cls-3" d="M119.17,96.55c-2.06,2.32-6.61,2.56-8.14,1.11-.54-.51-1-1.57-.59-2.89,3.92.38,7.55-1.78,8.87-.35.45.48.43,1.48-.14,2.14Z"/>
      <path class="cls-3" d="M153.03,81.3c-2.41,2.31-5.98,1.93-7.95-.28.41-1.47,2.45-3.74,3.8-3.62,1.69.15,3.14,2.33,4.15,3.9Z"/>
      <path class="cls-3" d="M84.78,64.68c-2.19,3.55-6.95,4.64-9.72,1.72,2.37-2.59,6.6-3.86,9.72-1.72Z"/>
      <path class="cls-3" d="M139.8,93.53c-1.55.77-2.56-1.44-3.05-2.72l-1.42-3.68c1.82-.8,4.09-.28,5.22,1.32.95,1.35,1.18,4.12-.76,5.08Z"/>
      <path class="cls-3" d="M138.94,79.99c.79,1.09,1.43,2.01.81,2.98-.55.85-1.64,1.24-2.86,1.2-1.46-.05-2.34-1.01-2.81-1.93-.74-1.43-.14-2.63,1.05-3.26,1.56-.82,2.54-.76,3.82,1.02Z"/>
      <path class="cls-3" d="M105.21,73.24c1.82,2.01-.7,3.77-2.08,4.03-1.81.34-4.64-.36-4.34-2.82.48-1.53,5.24-2.51,6.41-1.21Z"/>
      <path class="cls-3" d="M154.42,89.41c1.24,1.05.08,2.71-.77,3.05-1.05.42-2.1-.01-3.23-.72l-2.2-1.38c-.68-.43-.91-2.39-.07-2.7,1.62-.58,4.56.3,6.27,1.75Z"/>
      <path class="cls-3" d="M132.49,92.56c.7,1.88-1.9,2.95-3.06,3.09-1.51.18-3.82-2-3.04-3.3,1.08-1.81,5.32-1.86,6.09.21Z"/>
      <path class="cls-3" d="M140.86,72.78c-.93,1.82-5.53,1.42-5.98-.7-.37-1.74,2.22-2.5,3.5-2.51,1.1,0,3.44,1.34,2.48,3.22Z"/>
      <path class="cls-4" d="M30.61,110.13c-.72,1.82-2.38,2.59-3.35,2.76-1.21.21-3.37-.12-3.69-1.35-.46-1.74,5.95-4.02,7.04-1.41Z"/>
      <path class="cls-4" d="M124.43,83.84c.63,1.5-2.04,2.49-3.19,2.47s-3.72-.91-3.24-2.49c.73-2.43,5.53-2.15,6.44.03Z"/>
      <path class="cls-3" d="M78.99,75.96c.86.97-.71,3.35-1.65,3.49-1.74.25-3.37-.23-4.83-1.78.94-2.06,4.55-3.88,6.48-1.71Z"/>
      <path class="cls-4" d="M98.32,99.95c-1.38-.24-2.93-2.65-2.27-3.77.42-.71,3.34-1.62,4.57-.29.66.72.42,1.98-.28,2.9-.57.75-1.27,1.29-2.02,1.16Z"/>
      <path class="cls-3" d="M68.11,95.74c.34,2.49.13,5.2-2.22,6.49-2.28-1.27.28-3.51-1.12-7.38l3.34.89Z"/>
      <path class="cls-3" d="M59.28,65.94c-.76,2.43-5.3,4.87-6.48,2.99-.43-2.98,4.92-3.95,6.48-2.99Z"/>
      <path class="cls-3" d="M125.07,65.19c-1.41.56-3.24,1.15-4.68.88-.93-.17-1.6-3.04-.81-3.56,2-1.23,4.72.42,5.49,2.68Z"/>
      <path class="cls-4" d="M169.39,74.7c.21,1.41,3.51,2.33,6.37,2.82.12.24.11,1.18-.13,1.35-1.04.19-2.61.46-3.38.22l-3.26-1.5c-.56-.26-1.2-.57-1.38-.9-.21-.38-.18-1.14-.04-1.52l1.82-.47Z"/>
      <path d="M62.86,104.47l1.32.23-1.32,1.88c-1.25-.24-2.42.23-2.61,1.46-.34.08-1.02.25-1.33.46-.67-1.38-2.28.01-3.16,0-4.74-.12-8.47-3.06-10.89-6.42.32-1.64.39-4,2.4-4.12-1.4,1.64-1.27,4.1.36,5.95,4,4.54,10.83,4.29,15.22.57Z"/>
      <path d="M41.74,104.66c.73-1.14,1.89-2.03,3.15-2.58-.09.64.01,2.02-.51,2.37-.63.42-2.02.16-2.65.21Z"/>
      <path d="M41.74,104.66l-1.32.68c.11-.25.13-.68-.25-.81l1.57.13Z"/>
      <path class="cls-3" d="M144.95,67.54c-3.74,1.41-7.1.59-10.45-1.32,3.7-.81,6.86.15,10.45,1.32Z"/>
      <path class="cls-3" d="M68.06,70.89c-1.74,1.29-4.06.9-5.92-.33,1.69-2.06,3.75-3.01,5.43-1.78.48.35,1.13,1.64.49,2.11Z"/>
      <path class="cls-4" d="M110.96,63.33c-.75-.8-1.51-1.31-2.28-1.86,1.5-1.35,5.28-1.57,6.5-.32.31,2.45-3.22,1.95-4.22,2.18Z"/>
      <path class="cls-3" d="M108.68,61.47c.77.54,1.53,1.05,2.28,1.86-.81,1.45-1.44,1.78-2.6,1.9s-3.08,0-2.87-1.26c.27-1.61,2.37-1.77,3.19-2.5Z"/>
      <path class="cls-3" d="M182.62,83.79c.54.79-.91,2.26-1.69,2.64s-2.74-.46-2.88-1.51c-.15-1.16.9-1.75,1.51-1.95.77-.24,2.2-.46,3.06.81Z"/>
      <path class="cls-3" d="M62.57,73.57c.55.58-.24,2.01-.78,2.4-.76.56-2.4,1.13-3.33.47-.26-.19-.52-1.64-.27-1.84.97-.75,2.56-1.33,4.37-1.04Z"/>
      <path class="cls-3" d="M70.68,62.79c-1.56.54-3.34,1.11-4.59.54-.72-.65.61-2.22,1.78-2.34,1.01-.1,2.51-.26,2.81,1.8Z"/>
      <path class="cls-3" d="M175.76,77.52c-2.86-.49-6.16-1.41-6.37-2.82,2.18-.56,5.36.83,6.37,2.82Z"/>
      <path class="cls-3" d="M172.12,67.82c-.49.84-.86,1.78-.73,2.76-.52.02-1.92-.33-1.89-1.01.06-1.38,1.7-1.89,2.62-1.76Z"/>
      <path class="cls-3" d="M25.59,122.13l-4.49-1.18c-.15-.61.46-1.16.96-.9l1.16.61c.86.45,2.27.46,2.36,1.48Z"/>
      <path class="cls-4" d="M62.87,106.58c-.66.94-1.46,1.32-2.61,1.46.19-1.23,1.36-1.7,2.61-1.46Z"/>
      <path class="cls-3" d="M66.8,87.24c-.32-.13-.62-.16-.91-.02-.4.45-.63-.12-.51-.24.35-.32.72-.27.9-.22.24.07.36.24.52.48Z"/>
      <path class="cls-3" d="M233.3,68.25c-.86-.65-2.13-.85-2.56-1.94.63-.04,1.4-.14,1.96.31.41.33.66,1.02.6,1.63Z"/>
      <path class="cls-3" d="M55.2,92.55l-.09,1.12c-2.36.27-4.42,2.34-4.92,4.47-.62,2.61.85,4.59,2.8,5.76,2.31,1.38,4.29.14,6.54-.44,1.83-.47,3.67-.7,4.42-2.9-.11,1.44-.21,2.67-1.09,3.91-4.39,3.72-11.22,3.97-15.22-.57-1.62-1.84-1.75-4.31-.36-5.95.86-2.41,2.55-2.86,4.93-3.99l2.98-1.41Z"/>
      <path class="cls-1" d="M63.95,100.56c-.74,2.2-2.58,2.43-4.42,2.9,1.64-2.29,2.48-5.2.66-7.69-1.35.59-2.89,1-3.95.27.8-.92.8-1.94.42-2.2-.32-.22-1.2-.24-1.56-.17l.09-1.12c1.88-.05,4.34-1.05,6.27.03,2.99,1.66,2.68,5.25,2.48,7.98Z"/>
      <polygon class="cls-4" points="75.87 95.07 76.24 95.39 75.87 95.71 75.55 95.39 75.87 95.07"/>
      <path d="M55.11,93.68c.36-.07,1.24-.06,1.56.17.38.26.38,1.28-.42,2.2,1.07.73,2.6.32,3.95-.27,1.82,2.49.97,5.4-.66,7.69-2.26.58-4.23,1.82-6.54.44-1.95-1.16-3.42-3.14-2.8-5.76.5-2.12,2.57-4.19,4.92-4.47Z"/>
    </g>
  </g>
</svg>